<svg width="300" height="300" xmlns="http://www.w3.org/2000/svg">
 <title/>

 <desc/>
 <g stroke="null">
  <title>background</title>
  <rect fill="none" id="canvas_background" height="181.42526" width="181.42526" y="-1" x="-1" stroke="null"/>
 </g>
 <g stroke="null">
  <title>Layer 1</title>
  <path fill="#92cf48" id="note-list" d="m214.520402,299.810216l-188.936953,0c-14.393587,0 -26.0619,-11.786214 -26.0619,-26.155479l0,-248.347768c0,-14.445214 11.748449,-26.155479 26.071673,-26.155479l247.552026,0c14.398929,0 26.071673,11.693141 26.071673,26.066589l0,176.551248l0,6.536059l-78.181401,91.50483l-6.515117,0l0,0l0,0l-0.000001,0zm-201.96862,-222.226015l0,196.098118c0,7.322216 5.877547,13.055778 13.1277,13.055778l182.325804,0l0,-65.283206c0,-14.632537 11.655544,-26.221624 26.033234,-26.221624l52.148167,0l0,-117.649067l-273.634905,0l0,0l0,0l0,0.000001zm0,-13.072119l0,-39.232696c0,-7.210581 5.715191,-13.055778 13.013946,-13.055778l247.607013,0c7.187477,0 13.013946,5.8818 13.013946,13.161663l0,39.126811l-273.634905,0l0,0zm208.483737,215.689955l0,-58.70976c0,-7.282869 5.872075,-13.186892 12.987755,-13.186892l48.253691,0l-61.241446,71.896652l0,0zm-117.272102,-111.113007l0,13.072119l91.211635,0l0,-13.072119l-91.211635,0l0,0zm-65.151168,-13.072119l0,39.216356l39.090701,0l0,-39.216356l-39.090701,0l0,0zm13.030234,13.072119l0,13.072119l13.030234,0l0,-13.072119l-13.030234,0l0,0zm52.120934,-52.288474l0,13.072119l156.362803,0l0,-13.072119l-156.362803,0l0,0zm-65.151168,-13.072119l0,39.216356l39.090701,0l0,-39.216356l-39.090701,0l0,0zm13.030234,13.072119l0,13.072119l13.030234,0l0,-13.072119l-13.030234,0l0,0zm52.120934,104.576948l0,13.072119l78.181401,0l0,-13.072119l-78.181401,0l0,0zm-65.151168,-13.072119l0,39.216356l39.090701,0l0,-39.216356l-39.090701,0l0,0zm13.030234,13.072119l0,13.072119l13.030234,0l0,-13.072119l-13.030234,0l0,0z" stroke="null"/>
 </g>
</svg>