<svg width="300" height="300" xmlns="http://www.w3.org/2000/svg" class="svg-inline--fa fa-utensils fa-w-13">
 <g stroke="null">
  <title>background</title>
  <rect stroke="null" fill="none" id="canvas_background" height="601.9968" width="601.9968" y="-1" x="-1"/>
 </g>

 <g stroke="null">
  <title>Layer 1</title>
  <path id="svg_1" d="m149.665345,9.701914c0.572543,2.729376 11.522437,54.877867 11.522437,74.796501c0,30.37156 -19.895886,52.032348 -49.310308,60.743121l9.232264,138.268997c0.500975,7.955839 -7.299929,14.69217 -17.176304,14.69217l-45.803479,0c-9.804807,0 -17.67728,-6.678259 -17.176304,-14.69217l9.232264,-138.268997c-29.48599,-8.710772 -49.310308,-30.429632 -49.310308,-60.743121c0,-19.976705 10.949894,-72.067125 11.522437,-74.796501c2.290174,-11.788579 32.420275,-11.962795 34.281042,0.63879l0,81.997406c0.930383,1.974442 10.806758,1.858298 11.45087,0c1.001951,-14.69217 5.653867,-80.83597 5.725435,-82.345837c2.361742,-12.078938 31.990867,-12.078938 34.281042,0c0.143136,1.567939 4.723484,67.653667 5.725435,82.345837c0.644111,1.858298 10.592055,1.974442 11.45087,0l0,-81.997406c1.860766,-12.543512 32.062435,-12.427369 34.35261,-0.63879l-0.000002,0l-0.000001,0zm85.30898,165.911182l-10.735191,107.490934c-0.858815,8.130055 7.085226,15.098673 17.104737,15.098673l40.078044,0c9.518535,0 17.176304,-6.213685 17.176304,-13.937236l0,-269.453232c0,-7.66548 -7.657769,-13.937236 -17.176304,-13.937236c-59.043547,0 -158.451411,103.658194 -46.44759,174.738098l0.000001,0l-0.000001,-0.000001z" fill="#92cf48" stroke="null"/>
 </g>
</svg>