<svg width="300" height="300" xmlns="http://www.w3.org/2000/svg" stroke="null" style="vector-effect: non-scaling-stroke;">

 <g stroke="null">
  <title stroke="null">background</title>
  <rect stroke="null" fill="none" id="canvas_background" height="302" width="302" y="-1" x="-1"/>
 </g>
 <g stroke="null">
  <title stroke="null">Layer 1</title>
  <path fill="#92cf48" stroke="null" id="home" d="m292.875164,124.323877l-128.935161,-116.756632c-8.678328,-7.38966 -21.07594,-7.38966 -30.994029,0l-127.6954,116.756632c-9.918089,8.867592 -4.959045,25.124845 7.438567,25.124845l12.397612,0l0,90.153855c0,31.036573 22.315701,57.63935 49.590447,57.63935l24.795223,0c7.438567,0 12.397612,-5.911728 12.397612,-14.779321l0,-72.418671c0,-16.257253 11.15785,-31.036573 24.795223,-31.036573l24.795223,0c13.637373,0 24.795223,14.779321 24.795223,31.036573l0,72.418671c0,7.38966 4.959045,14.779321 12.397612,14.779321l24.795223,0c27.274746,0 49.590447,-26.602777 49.590447,-57.63935l0,-90.153855l12.397612,0c11.15785,0 16.116895,-16.257253 7.438567,-25.124845z"/>
 </g>
</svg>